<svg xmlns="http://www.w3.org/2000/svg" viewBox="0 0 560 380" role="img" aria-label="Unfold Your Mat — current site before redesign: a wall of text with no clear next step">
  <rect width="560" height="380" fill="#f0eeea"/>

  <!-- tiny logo, crowded links -->
  <text x="20" y="28" font-family="Georgia, serif" font-size="12" fill="#8a8680">unfold your mat</text>
  <g font-family="Helvetica, Arial, sans-serif" font-size="8" fill="#a39e96">
    <text x="360" y="27">philosophy</text>
    <text x="418" y="27">classes</text>
    <text x="462" y="27">teachers</text>
    <text x="515" y="27">blog</text>
  </g>
  <rect x="0" y="40" width="560" height="1" fill="#ddd8d0"/>

  <!-- big centered philosophy heading + endless text -->
  <text x="280" y="78" text-anchor="middle" font-family="Georgia, serif" font-size="17" fill="#8a8680">Our philosophy of mindful movement</text>
  <g fill="#cfcabf">
    <rect x="70" y="100" width="420" height="7" rx="3"/>
    <rect x="70" y="114" width="420" height="7" rx="3"/>
    <rect x="70" y="128" width="420" height="7" rx="3"/>
    <rect x="70" y="142" width="400" height="7" rx="3"/>
    <rect x="70" y="156" width="420" height="7" rx="3"/>
    <rect x="70" y="170" width="410" height="7" rx="3"/>
    <rect x="70" y="184" width="420" height="7" rx="3"/>
    <rect x="70" y="198" width="380" height="7" rx="3"/>
    <rect x="70" y="212" width="420" height="7" rx="3"/>
    <rect x="70" y="226" width="420" height="7" rx="3"/>
    <rect x="70" y="240" width="395" height="7" rx="3"/>
    <rect x="70" y="254" width="420" height="7" rx="3"/>
    <rect x="70" y="268" width="360" height="7" rx="3"/>
    <rect x="70" y="282" width="420" height="7" rx="3"/>
    <rect x="70" y="296" width="300" height="7" rx="3"/>
  </g>
  <!-- no clear CTA anywhere; a faint text link -->
  <text x="280" y="344" text-anchor="middle" font-family="Helvetica, Arial, sans-serif" font-size="9" fill="#a39e96">read more about our approach →</text>
</svg>
